<?xml version="1.0" encoding="UTF-8"?>
<svg width="137px" height="24px" viewBox="0 0 137 24" version="1.1" xmlns="http://www.w3.org/2000/svg" xmlns:xlink="http://www.w3.org/1999/xlink">
    <!-- Generator: Sketch 45.2 (43514) - http://www.bohemiancoding.com/sketch -->
    <title>SimpleGrid.</title>
    <desc>Created with Sketch.</desc>
    <defs></defs>
    <g id="website-v-0.1" stroke="none" stroke-width="1" fill="none" fill-rule="evenodd">
        <g id="coming-soon" transform="translate(-20.000000, -28.000000)" fill="#292929">
            <path d="M32.1526521,34.4636616 L30.3491211,34.4636616 L29.9012644,31.9459807 C29.5381355,31.6393385 29.053971,31.3851521 28.4487562,31.1834139 C27.8435414,30.9816756 27.1415028,30.880808 26.3426192,30.880808 C25.075703,30.880808 24.1033391,31.1491158 23.4254986,31.6857396 C22.747658,32.2223634 22.4087428,32.9223847 22.4087428,33.7858244 C22.4087428,34.5524298 22.7537101,35.1919305 23.4436549,35.7043457 C24.1335998,36.2167609 25.2491956,36.6666305 26.7904759,37.0539679 C28.646468,37.5139312 30.0565973,38.1917616 31.0209061,39.0874794 C31.985215,39.9831973 32.4673623,41.0927411 32.4673623,42.4161441 C32.4673623,43.8363815 31.8883821,44.9782029 30.7304045,45.8416427 C29.5724269,46.7050824 28.0573953,47.1367958 26.1852642,47.1367958 C24.8295831,47.1367958 23.6252237,46.9148871 22.57215,46.4710629 C21.5190763,46.0272387 20.6617015,45.4462413 20,44.728053 L20,41.4478053 L21.7914268,41.4478053 L22.2513877,43.9775905 C22.711351,44.3568584 23.2600708,44.6675307 23.8975637,44.9096166 C24.5350566,45.1517025 25.2976158,45.2727436 26.1852642,45.2727436 C27.3876242,45.2727436 28.3377972,45.0185572 29.0358116,44.5101768 C29.733826,44.0017964 30.0828279,43.3118619 30.0828279,42.4403526 C30.0828279,41.6333995 29.7802251,40.9575865 29.1750103,40.4128932 C28.5697955,39.8681999 27.5005987,39.4102609 25.967388,39.0390625 C24.1033264,38.5952383 22.646798,37.9416162 21.597759,37.0781764 C20.5487201,36.2147366 20.0242085,35.1294011 20.0242085,33.8221371 C20.0242085,32.4422474 20.6092407,31.2943739 21.7793226,30.3784822 C22.9494045,29.4625905 24.4704882,29.0046515 26.3426192,29.0046515 C27.5772574,29.0046515 28.7009227,29.2164735 29.7136487,29.6401239 C30.7263748,30.0637742 31.5393678,30.5781991 32.1526521,31.1834139 L32.1526521,34.4636616 Z M34.7066458,45.3574733 L36.6796361,45.0185547 L36.6796361,35.6619809 L34.7066458,35.3230623 L34.7066458,33.7858244 L39.0641704,33.7858244 L39.0641704,45.0185547 L41.0371608,45.3574733 L41.0371608,46.8826069 L34.7066458,46.8826069 L34.7066458,45.3574733 Z M39.0641704,30.4329513 L36.6796361,30.4329513 L36.6796361,28 L39.0641704,28 L39.0641704,30.4329513 Z M42.3807309,45.3574733 L44.3537212,45.0185547 L44.3537212,35.6619809 L42.3807309,35.3230623 L42.3807309,33.7858244 L46.4961708,33.7858244 L46.6535259,35.4925216 C47.0731415,34.8711677 47.6137919,34.3910379 48.2754934,34.0521176 C48.9371949,33.7131973 49.7037888,33.5437397 50.5752981,33.5437397 C51.4468074,33.5437397 52.1952451,33.745475 52.8206337,34.1489515 C53.4460223,34.552428 53.9160654,35.1576337 54.2307771,35.9645868 C54.6423232,35.22219 55.1870083,34.6331231 55.8648489,34.1973684 C56.5426895,33.7616138 57.3334916,33.5437397 58.237279,33.5437397 C59.576821,33.5437397 60.6339137,34.0016787 61.4085886,34.9175704 C62.1832635,35.8334621 62.5705952,37.2113138 62.5705952,39.0511667 L62.5705952,45.0185547 L64.5435855,45.3574733 L64.5435855,46.8826069 L58.2009663,46.8826069 L58.2009663,45.3574733 L60.1739566,45.0185547 L60.1739566,39.0269583 C60.1739566,37.7358334 59.9520479,36.8219728 59.5082237,36.285349 C59.0643995,35.7487252 58.4067426,35.4804174 57.5352333,35.4804174 C56.7040717,35.4804174 56.0363281,35.7729334 55.5319824,36.3579744 C55.0276368,36.9430154 54.7351207,37.679349 54.6544254,38.5669973 L54.6544254,45.0185547 L56.6274157,45.3574733 L56.6274157,46.8826069 L50.2969007,46.8826069 L50.2969007,45.3574733 L52.269891,45.0185547 L52.269891,39.0269583 C52.269891,37.8003896 52.0419302,36.9026678 51.5860017,36.3337659 C51.1300733,35.764864 50.4703991,35.4804174 49.6069593,35.4804174 C48.8807015,35.4804174 48.2835653,35.6297014 47.8155325,35.9282741 C47.3474997,36.2268467 46.988411,36.646456 46.7382556,37.1871145 L46.7382556,45.0185547 L48.7112459,45.3574733 L48.7112459,46.8826069 L42.3807309,46.8826069 L42.3807309,45.3574733 Z M65.9839895,50.3807309 L67.9569799,50.0418123 L67.9569799,35.6619809 L65.9839895,35.3230623 L65.9839895,33.7858244 L70.0025956,33.7858244 L70.2204718,35.3835835 C70.6562265,34.7864382 71.1867902,34.3305166 71.8121788,34.0158049 C72.4375674,33.7010932 73.1617969,33.5437397 73.984889,33.5437397 C75.6068646,33.5437397 76.8677098,34.1872751 77.7674625,35.4743652 C78.6672151,36.7614553 79.1170847,38.4620834 79.1170847,40.5763004 L79.1170847,40.8304893 C79.1170847,42.7187594 78.6651978,44.2418605 77.7614104,45.3998381 C76.8576229,46.5578157 75.6108992,47.1367958 74.0212017,47.1367958 C73.2142486,47.1367958 72.506158,47.0016332 71.8969084,46.731304 C71.2876589,46.4609747 70.7691993,46.0595216 70.3415142,45.5269326 L70.3415142,50.0418123 L72.3145045,50.3807309 L72.3145045,51.9179687 L65.9839895,51.9179687 L65.9839895,50.3807309 Z M76.7204461,40.5763004 C76.7204461,39.0834372 76.4299474,37.8609217 75.8489412,36.9087171 C75.267935,35.9565125 74.4045082,35.4804174 73.2586349,35.4804174 C72.5807943,35.4804174 71.9997968,35.6337361 71.515625,35.9403783 C71.0314532,36.2470204 70.6400868,36.6666297 70.3415142,37.1992188 L70.3415142,43.5781507 C70.6400868,44.1188092 71.0294358,44.5364012 71.5095729,44.830939 C71.9897099,45.1254769 72.5807942,45.2727436 73.2828433,45.2727436 C74.4125776,45.2727436 75.267935,44.8612037 75.8489412,44.0381116 C76.4299474,43.2150195 76.7204461,42.1458228 76.7204461,40.8304893 L76.7204461,40.5763004 Z M80.8358861,29.5372379 L80.8358861,28 L85.1934108,28 L85.1934108,45.0185547 L87.1664011,45.3574733 L87.1664011,46.8826069 L80.8358861,46.8826069 L80.8358861,45.3574733 L82.8088764,45.0185547 L82.8088764,29.8761565 L80.8358861,29.5372379 Z M94.9494243,47.1367958 C93.1257105,47.1367958 91.6752341,46.5295728 90.5979518,45.3151084 C89.5206695,44.1006441 88.9820364,42.5250919 88.9820364,40.5884046 L88.9820364,40.0558183 C88.9820364,38.1917567 89.5368083,36.6404128 90.6463687,35.4017398 C91.7559292,34.1630669 93.0692256,33.5437397 94.5862973,33.5437397 C96.3454549,33.5437397 97.6789248,34.0763207 98.586747,35.1414988 C99.4945692,36.2066768 99.9484735,37.6268929 99.9484735,39.4021896 L99.9484735,40.8910105 L91.4513004,40.8910105 L91.4149877,40.9515317 C91.4391963,42.2103784 91.7579379,43.2452802 92.3712222,44.056268 C92.9845066,44.8672558 93.8438987,45.2727436 94.9494243,45.2727436 C95.7563774,45.2727436 96.4644681,45.1577545 97.0737176,44.9277729 C97.6829672,44.6977913 98.2094961,44.381067 98.6533203,43.9775905 L99.5853464,45.5269326 C99.1173137,45.9788263 98.4979865,46.3601059 97.7273463,46.6707828 C96.9567062,46.9814597 96.0307414,47.1367958 94.9494243,47.1367958 Z M94.5862973,35.4198962 C93.7874138,35.4198962 93.1055487,35.756794 92.5406815,36.4305998 C91.9758144,37.1044056 91.6288298,37.9496762 91.4997173,38.9664371 L91.5239258,39.0269583 L97.5639391,39.0269583 L97.5639391,38.7122481 C97.5639391,37.7761826 97.3137875,36.9934499 96.8134766,36.3640265 C96.3131657,35.7346031 95.57078,35.4198962 94.5862973,35.4198962 Z M116.325504,44.9943462 C115.954305,45.5107962 115.24218,45.9969781 114.189106,46.4529066 C113.136032,46.908835 111.84291,47.1367958 110.309699,47.1367958 C108.074439,47.1367958 106.262856,46.307664 104.874897,44.6493755 C103.486938,42.991087 102.792969,40.8305026 102.792969,38.1675576 L102.792969,37.7075966 C102.792969,35.1334164 103.490973,33.0394047 104.887001,31.4254986 C106.28303,29.8115925 108.102682,29.0046515 110.346012,29.0046515 C111.685554,29.0046515 112.873774,29.236647 113.910709,29.700645 C114.947643,30.164643 115.772741,30.8243173 116.386025,31.6796875 L116.386025,34.6331209 L115.732396,34.6331209 L115.7445,31.9217722 C115.187703,31.203584 114.453387,30.6467947 113.54153,30.2513877 C112.629673,29.8559808 111.564511,29.6582802 110.346012,29.6582802 C108.272142,29.6582802 106.603792,30.4047006 105.34091,31.8975637 C104.078029,33.3904269 103.446597,35.3190157 103.446597,37.6833882 L103.446597,38.1675576 C103.446597,40.6287644 104.073994,42.6299779 105.328806,44.1712582 C106.583618,45.7125385 108.243899,46.4831671 110.309699,46.4831671 C111.608893,46.4831671 112.744663,46.293536 113.717041,45.9142681 C114.689419,45.5350002 115.341024,45.127495 115.671875,44.6917403 L115.671875,40.043714 L111.859041,40.043714 L111.859041,39.3779811 L116.325504,39.3779811 L116.325504,44.9943462 Z M122.341309,33.7858244 L122.462351,36.0614206 L122.462351,36.5092773 C122.82548,35.5732118 123.36613,34.8449476 124.084318,34.3244629 C124.802507,33.8039782 125.686107,33.5437397 126.735146,33.5437397 C126.920745,33.5437397 127.09222,33.5578612 127.249576,33.5861045 C127.406932,33.6143479 127.542094,33.6446082 127.655068,33.6768863 L127.582442,34.2578896 L126.735146,34.1852642 C125.565064,34.1852642 124.614891,34.5625091 123.884599,35.3170102 C123.154306,36.0715113 122.680228,37.066066 122.462351,38.3007042 L122.462351,46.2289782 L124.435341,46.2289782 L124.435341,46.8826069 L119.835732,46.8826069 L119.835732,46.2289782 L121.808722,46.2289782 L121.808722,34.4394531 L119.835732,34.4394531 L119.835732,33.7858244 L122.341309,33.7858244 Z M129.555433,46.2289782 L131.528423,46.2289782 L131.528423,34.4394531 L129.555433,34.4394531 L129.555433,33.7858244 L132.182052,33.7858244 L132.182052,46.2289782 L134.155042,46.2289782 L134.155042,46.8826069 L129.555433,46.8826069 L129.555433,46.2289782 Z M132.182052,29.6703845 L131.528423,29.6703845 L131.528423,28 L132.182052,28 L132.182052,29.6703845 Z M146.489258,44.7885742 C146.061573,45.5067624 145.468471,46.0776731 144.709935,46.5013235 C143.951399,46.9249738 143.055695,47.1367958 142.022795,47.1367958 C140.481515,47.1367958 139.277155,46.547729 138.409681,45.3695775 C137.542206,44.1914261 137.108476,42.593683 137.108476,40.5763004 L137.108476,40.3221114 C137.108476,38.2482421 137.544224,36.6000652 138.415733,35.3775314 C139.287242,34.1549975 140.497654,33.5437397 142.047003,33.5437397 C143.079903,33.5437397 143.967538,33.7797699 144.709935,34.2518375 C145.452332,34.723905 146.045434,35.3714751 146.489258,36.1945672 L146.489258,28.6536287 L144.516267,28.6536287 L144.516267,28 L147.142887,28 L147.142887,46.2289782 L149.115877,46.2289782 L149.115877,46.8826069 L146.513466,46.8826069 L146.489258,44.7885742 Z M137.786313,40.5763004 C137.786313,42.3838752 138.143384,43.8202301 138.857538,44.8854081 C139.571691,45.9505861 140.622732,46.4831671 142.010691,46.4831671 C143.148495,46.4831671 144.094633,46.224946 144.849134,45.7084961 C145.603635,45.1920461 146.150338,44.5021116 146.489258,43.6386719 L146.489258,37.5018246 C146.174546,36.5657591 145.666173,35.781009 144.964124,35.1475509 C144.262075,34.5140927 143.285676,34.1973684 142.034899,34.1973684 C140.64694,34.1973684 139.591865,34.7642444 138.869642,35.8980135 C138.147419,37.0317825 137.786313,38.5064671 137.786313,40.3221114 L137.786313,40.5763004 Z M151.547587,44.5943478 C151.547587,46.0245097 152.723498,47.2004207 154.15366,47.2004207 C155.583821,47.2004207 156.791514,46.0245097 156.791514,44.5943478 C156.791514,43.1641859 155.583821,41.9564935 154.15366,41.9564935 C152.723498,41.9564935 151.547587,43.1641859 151.547587,44.5943478 Z" id="SimpleGrid."></path>
        </g>
    </g>
</svg>