<?xml version="1.0" encoding="UTF-8"?>
<svg width="13px" height="10px" viewBox="0 0 13 10" version="1.1" xmlns="http://www.w3.org/2000/svg" xmlns:xlink="http://www.w3.org/1999/xlink">
    <!-- Generator: Sketch 45.2 (43514) - http://www.bohemiancoding.com/sketch -->
    <title>Monogram</title>
    <desc>Created with Sketch.</desc>
    <defs></defs>
    <g id="website-v-0.1" stroke="none" stroke-width="1" fill="none" fill-rule="evenodd">
        <g id="coming-soon" transform="translate(-714.000000, -738.000000)">
            <g id="Group-2" transform="translate(0.000000, 703.000000)">
                <g id="Group-11" transform="translate(683.000000, 30.000000)">
                    <g id="Monogram" transform="translate(27.500000, 0.000000)">
                        <rect id="Rectangle-path" x="0" y="0" width="19.7991759" height="19.7991759"></rect>
                        <path d="M4.99366157,7.03997648 C5.00931133,6.88535165 4.95034615,6.73252221 4.83488652,6.62845385 L3.65877505,5.21164021 L3.65877505,5 L7.31060116,5 L10.1332687,11.1904762 L12.6148639,5 L16.0961538,5 L16.0961538,5.21164021 L15.0905786,6.17577895 C15.0038869,6.24186036 14.9608835,6.35046983 14.978848,6.4579659 L14.978848,13.5420341 C14.9608835,13.6495302 15.0038869,13.7581396 15.0905786,13.8242211 L16.0726316,14.7883598 L16.0726316,15 L11.1329635,15 L11.1329635,14.7883598 L12.1502999,13.8007055 C12.2502693,13.7007642 12.2502693,13.6713698 12.2502693,13.5185186 L12.2502693,7.79247502 L9.42172125,14.9764844 L9.03948503,14.9764844 L5.7463729,7.79247502 L5.7463729,12.6072898 C5.71891613,12.8097182 5.78614614,13.0135192 5.92867018,13.159906 L7.25179559,14.7648442 L7.25179559,14.9764844 L3.5,14.9764844 L3.5,14.7648442 L4.8231254,13.159906 C4.96461174,13.0132765 5.02792152,12.8081236 4.99366157,12.6072898 L4.99366157,7.03997648 Z" id="Shape" fill="#A2AEB6" fill-rule="nonzero"></path>
                    </g>
                </g>
            </g>
        </g>
    </g>
</svg>