<?xml version="1.0" encoding="UTF-8"?>
<svg width="13px" height="11px" viewBox="0 0 13 11" version="1.1" xmlns="http://www.w3.org/2000/svg" xmlns:xlink="http://www.w3.org/1999/xlink">
    <!-- Generator: Sketch 45.2 (43514) - http://www.bohemiancoding.com/sketch -->
    <title>Twitter_Logo_Blue</title>
    <desc>Created with Sketch.</desc>
    <defs></defs>
    <g id="website-v-0.1" stroke="none" stroke-width="1" fill="none" fill-rule="evenodd">
        <g id="coming-soon" transform="translate(-686.000000, -737.000000)">
            <g id="Group-2" transform="translate(0.000000, 703.000000)">
                <g id="Group-11" transform="translate(683.000000, 30.000000)">
                    <g id="Twitter_Logo_Blue">
                        <g>
                            <path d="M7.6038735,14.9280836 C12.2735091,14.9280836 14.8276028,11.0593247 14.8276028,7.70435432 C14.8276028,7.59446889 14.8276028,7.48507844 14.8201781,7.37618297 C15.317054,7.01678381 15.7459656,6.57178176 16.0868304,6.06201268 C15.6234698,6.26733101 15.1319306,6.40197871 14.6286211,6.46146105 C15.1586173,6.14417037 15.5552837,5.64512716 15.7447996,5.0572045 C15.2464333,5.35293257 14.7012079,5.56134697 14.1326517,5.67345385 C13.3456755,4.83663885 12.0951776,4.63182543 11.0823656,5.17386121 C10.0695536,5.71589698 9.54630877,6.86998028 9.80603683,7.98896747 C7.76469019,7.88663025 5.86277148,6.92244688 4.57360963,5.33637288 C3.89975594,6.49642873 4.24394735,7.98048326 5.35963691,8.72549681 C4.95560562,8.71352205 4.56038347,8.60453037 4.20732487,8.40772004 C4.20732487,8.41811461 4.20732487,8.42900415 4.20732487,8.4398937 C4.20765559,9.64843192 5.05955639,10.689345 6.24416509,10.9286501 C5.8703911,11.0305862 5.47822437,11.0454872 5.09779281,10.9722083 C5.43039319,12.0064295 6.3835387,12.7149238 7.46973408,12.7353249 C6.57072035,13.4418743 5.46014719,13.8254318 4.31671532,13.8242796 C4.114716,13.8238918 3.91291314,13.8116613 3.71234548,13.7876511 C4.87338695,14.532732 6.22432305,14.9279435 7.6038735,14.9261037" id="Shape" fill="#A2AEB6" fill-rule="nonzero"></path>
                            <rect id="Rectangle-path" x="0" y="0" width="19.7991759" height="19.7991759"></rect>
                        </g>
                    </g>
                </g>
            </g>
        </g>
    </g>
</svg>